<?xml version="1.0" encoding="utf-8"?>
<!-- Generator: Adobe Illustrator 15.1.0, SVG Export Plug-In . SVG Version: 6.00 Build 0)  -->
<!DOCTYPE svg PUBLIC "-//W3C//DTD SVG 1.1//EN" "http://www.w3.org/Graphics/SVG/1.1/DTD/svg11.dtd">
<svg version="1.1" id="Layer_1" xmlns="http://www.w3.org/2000/svg" xmlns:xlink="http://www.w3.org/1999/xlink" x="0px" y="0px"
	 width="30px" height="27px" viewBox="0 0 30 27" enable-background="new 0 0 30 27" xml:space="preserve">
<path fill="#7B7C7C" d="M15,3.801l3.479,6.959l0.419,0.838l0.933,0.093l6.046,0.604l-3.983,3.415l-0.673,0.578l0.088,0.882
	l0.676,6.766l-6.159-3.421L15,20.058l-0.825,0.458l-6.159,3.421l0.676-6.766l0.088-0.882l-0.673-0.578l-3.983-3.415l6.046-0.604
	l0.933-0.093l0.419-0.838L15,3.801 M15,0l-5,10L0,11l7,6.002L6.001,27L15,22.002L23.999,27L23,17.002L30,11l-10-1L15,0L15,0z"/>
</svg>
